<?xml version="1.0" ?><svg style="enable-background:new 0 0 512 512;" version="1.1" viewBox="0 0 512 512" xml:space="preserve" xmlns="http://www.w3.org/2000/svg" xmlns:xlink="http://www.w3.org/1999/xlink"><style type="text/css">
	.st0{display:none;}
	.st1{fill:#DEFFFE;}
	.st2{fill:#004358;}
	.st3{fill:#04BFBF;}
	.st4{fill:#BEDB39;}
</style><g id="Layer_1"/><g class="st0" id="Layer_3"/><g class="st0" id="Layer_5"/><g id="Layer_4"><g><path class="st1" d="M273.325,68.022h15.185c8.121,0,14.705,6.584,14.705,14.705v25.099H288.27v-27L273.325,68.022z"/><path class="st1" d="M383.522,229.391l-32.87,3.822c0,0,27.323,78.091-36.426,92.7l77.643,52.174l38.609-20.348L383.522,229.391z"/><g><path class="st2" d="M432.565,367.349c-2.037,0-3.947-1.254-4.691-3.271L374.961,220.59c-0.953-2.585,0.365-5.455,2.948-6.416     l26.176-9.74c2.589-0.964,5.467,0.354,6.43,2.942c0.963,2.588-0.354,5.467-2.942,6.43l-21.503,8.001l49.484,134.189l21.878-7.696     c2.606-0.915,5.459,0.453,6.376,3.058c0.916,2.605-0.453,5.459-3.058,6.376l-26.525,9.331     C433.676,367.257,433.116,367.349,432.565,367.349z"/></g><g><g><path class="st2" d="M392.035,383.832c-1.668,0-3.299-0.834-4.248-2.354c-1.461-2.343-0.746-5.427,1.597-6.889l20.019-12.484      c2.344-1.46,5.427-0.746,6.889,1.597c1.461,2.343,0.746,5.427-1.597,6.889l-20.019,12.484      C393.853,383.587,392.938,383.832,392.035,383.832z"/></g><path class="st3" d="M394.621,374.549l-83.622-56.05c-2.292-1.537-5.399-0.925-6.937,1.37c-1.538,2.293-0.924,5.399,1.37,6.937     l83.814,56.179c3.363,1.754,5.929,4.653,7.019,8.348c1.059,3.506,0.698,7.197-1.016,10.394     c-3.559,6.636-11.852,9.139-18.488,5.582l-11.431-6.129c-1.183-0.791-2.433-1.75-3.859-2.069l-20.577-11.033     c-2.434-1.305-5.465-0.39-6.769,2.043c-1.305,2.434-0.39,5.464,2.043,6.769l23.738,12.729c5.182,4.003,6.885,11.286,3.691,17.244     c-3.559,6.636-11.852,9.139-18.488,5.582l-4.403-2.361c-0.001-0.001-0.003-0.002-0.004-0.002c-0.001,0-0.001,0-0.002-0.001     l-19.11-10.247c-2.434-1.305-5.464-0.39-6.769,2.043c-1.305,2.434-0.39,5.464,2.043,6.769l19.107,10.246     c0.002,0.001,0.003,0.002,0.005,0.003c3.197,1.714,5.54,4.588,6.598,8.094c1.059,3.506,0.698,7.197-1.016,10.394     c-3.559,6.636-11.852,9.139-18.488,5.582l-20.417-10.948c-2.434-1.305-5.465-0.39-6.769,2.043     c-1.305,2.434-0.39,5.464,2.043,6.769c0.927,0.453,3.767,2.021,4.517,2.652c3.196,1.714,5.54,4.588,6.598,8.094     c1.058,3.506,0.697,7.197-1.017,10.394c-3.558,6.636-11.852,9.14-18.512,5.568l-17.441-9.228     c-2.441-1.292-5.467-0.36-6.758,2.081c-1.292,2.441-0.36,5.467,2.081,6.758l17.417,9.215c3.548,1.902,7.37,2.804,11.139,2.804     c8.444,0,16.626-4.526,20.887-12.473c2.389-4.455,3.263-9.454,2.571-14.389c3.242,1.536,6.678,2.276,10.074,2.276     c8.443,0,16.625-4.526,20.888-12.473c2.976-5.551,3.607-11.947,1.776-18.009c-0.006-0.02-0.014-0.038-0.02-0.057     c8.227-0.211,16.122-4.696,20.283-12.453c2.408-4.492,3.207-9.421,2.608-14.129c2.664,0.986,5.423,1.467,8.156,1.467     c8.443,0,16.625-4.526,20.888-12.473C410.185,395.032,405.945,380.78,394.621,374.549z"/><g><path class="st3" d="M136.963,418.917c-0.707,0-1.424-0.15-2.107-0.468l-51.832-24.131c-2.503-1.166-3.588-4.14-2.422-6.643      c1.166-2.503,4.14-3.588,6.643-2.422l51.832,24.131c2.503,1.166,3.588,4.14,2.422,6.643      C140.651,417.847,138.847,418.917,136.963,418.917z"/></g><g><path class="st3" d="M153.682,269.021c-6.394,0-10.477-0.849-10.678-0.892c-2.701-0.574-4.425-3.229-3.851-5.93      c0.574-2.701,3.228-4.427,5.93-3.851c0.032,0.006,4.769,0.961,11.921,0.586l1.663-0.087c10.985-0.571,22.345-1.162,32.977-4.14      l41.555-11.64c2.659-0.745,5.418,0.807,6.163,3.466c0.745,2.659-0.807,5.418-3.466,6.163l-41.555,11.64      c-11.701,3.278-23.625,3.898-35.155,4.498l-1.657,0.086C156.172,268.992,154.886,269.021,153.682,269.021z"/></g><path class="st2" d="M266.207,454.82c-4.972-3.341-10.897-4.653-16.781-3.742c0.363-2.582,0.299-5.234-0.219-7.868     c-1.217-6.2-4.776-11.556-10.021-15.079c-4.987-3.35-10.932-4.66-16.833-3.733c1.188-8.672-2.494-17.683-10.236-22.883     c-9.453-6.35-21.873-4.952-29.716,2.709c-1.673-4.804-4.813-8.934-9.111-11.821c-10.829-7.274-25.554-4.381-32.828,6.446     l-5.669,8.439c-7.273,10.828-4.382,25.554,6.446,32.827c3.947,2.651,8.492,4.027,13.142,4.027c1.53,0,3.072-0.149,4.606-0.451     c0.969-0.19,1.908-0.457,2.832-0.759c0.499,7.027,4.104,13.765,10.391,17.989c4.04,2.713,8.62,4.012,13.155,4.012     c2.524,0,5.032-0.411,7.425-1.196c0.498,7.028,4.103,13.766,10.391,17.99c3.946,2.651,8.491,4.026,13.142,4.026     c1.53,0,3.072-0.149,4.607-0.45c0.969-0.19,1.908-0.457,2.832-0.76c0.499,7.028,4.104,13.765,10.391,17.989     c4.039,2.713,8.62,4.012,13.155,4.012c7.622,0,15.113-3.669,19.673-10.458l5.669-8.439     C279.926,476.82,277.035,462.094,266.207,454.82z M157.062,433.88c-3.58,0.702-7.218-0.031-10.246-2.064     c-3.028-2.034-5.083-5.125-5.785-8.705s0.03-7.218,2.064-10.246l5.669-8.439c2.633-3.919,6.957-6.037,11.357-6.037     c2.617,0,5.263,0.75,7.594,2.315c3.028,2.034,5.083,5.125,5.785,8.705c0.703,3.579-0.03,7.218-2.064,10.246l-5.669,8.44     C163.732,431.123,160.641,433.178,157.062,433.88z M177.788,452.622c-3.028-2.034-5.083-5.125-5.785-8.705     s0.03-7.218,2.064-10.246l13.524-20.133c2.034-3.028,5.125-5.083,8.705-5.785c0.886-0.174,1.776-0.26,2.659-0.26     c2.685,0,5.309,0.794,7.586,2.324c6.25,4.199,7.92,12.7,3.721,18.95L196.738,448.9c-2.034,3.028-5.125,5.083-8.705,5.785     C184.454,455.389,180.815,454.655,177.788,452.622z M219.006,475.491c-3.579,0.701-7.217-0.031-10.246-2.064     c-6.25-4.199-7.92-12.7-3.721-18.95l9.621-14.322c2.633-3.919,6.956-6.037,11.356-6.037c2.617,0,5.262,0.75,7.594,2.316     c6.25,4.199,7.92,12.7,3.721,18.95l-9.621,14.322C225.676,472.733,222.585,474.788,219.006,475.491z M264.352,482.072     l-5.669,8.439c-4.198,6.25-12.699,7.92-18.951,3.721c-6.25-4.199-7.92-12.7-3.721-18.951l5.669-8.439     c2.034-3.028,5.125-5.083,8.705-5.785c0.886-0.174,1.776-0.26,2.659-0.26c2.685,0,5.309,0.794,7.586,2.324     C266.88,467.32,268.55,475.822,264.352,482.072z"/><g><path class="st2" d="M309.721,327.643c-35.564,0.001-58.257-16.483-67.151-24.462c-1.062-0.953-2.702-0.997-3.816-0.104      c-38.88,31.189-63.045,24.055-73.989,17.027c-3.54-2.273-5.705-5.988-5.939-10.193c-0.232-4.155,1.558-8.203,4.787-10.827      l67.781-55.083c14.765-11.998,33.372-18.292,52.384-17.74l66.56,1.954c4.067,0.122,8.165-0.149,12.18-0.798      c2.73-0.439,5.293,1.413,5.733,4.139s-1.413,5.293-4.139,5.733c-4.639,0.749-9.374,1.059-14.068,0.922l-66.559-1.954      c-16.613-0.485-32.88,5.019-45.785,15.505l-67.781,55.083c-1.079,0.876-1.135,2.046-1.109,2.509      c0.032,0.567,0.25,1.625,1.358,2.336c8.686,5.577,28.331,10.86,62.329-16.414c4.968-3.984,12.012-3.79,16.751,0.461      c9.308,8.35,35.511,27.07,77.685,20.551c2.728-0.423,5.283,1.449,5.705,4.178s-1.449,5.283-4.178,5.705      C321.864,327.19,315.614,327.643,309.721,327.643z"/></g><g><path class="st2" d="M81.259,402.956c-0.598,0-1.205-0.108-1.796-0.335l-26.908-10.364c-2.577-0.993-3.861-3.886-2.869-6.463      c0.993-2.577,3.885-3.86,6.463-2.869l22.402,8.629l58.84-138.22l-22.262-10.605c-2.493-1.188-3.551-4.171-2.364-6.665      c1.188-2.493,4.169-3.551,6.665-2.364l26.59,12.667c2.419,1.153,3.5,4.007,2.45,6.473L85.861,399.914      C85.054,401.81,83.208,402.956,81.259,402.956z"/></g><g><path class="st4" d="M10.001,170.158c-0.904,0-1.806,0.245-2.604,0.731C5.908,171.796,5,173.414,5,175.158v203.674      c0,1.996,1.187,3.8,3.019,4.591l40.652,17.542c0.632,0.272,1.306,0.409,1.981,0.409c0.633,0,1.267-0.12,1.866-0.361      c1.237-0.498,2.225-1.469,2.742-2.698l69.321-164.554c1.014-2.407,0.004-5.189-2.318-6.386L12.29,170.713      C11.57,170.342,10.785,170.158,10.001,170.158L10.001,170.158z"/><path class="st4" d="M504.699,151.244c-0.818-0.524-1.757-0.791-2.699-0.791c-0.71,0-1.422,0.151-2.086,0.457l-99.174,45.556      c-2.375,1.091-3.51,3.828-2.602,6.279l59.348,160.338c0.462,1.25,1.404,2.263,2.617,2.814c0.657,0.299,1.364,0.45,2.072,0.45      c0.599,0,1.199-0.107,1.77-0.324l39.826-15.07c1.944-0.735,3.23-2.598,3.23-4.676V155.453      C507,153.75,506.133,152.163,504.699,151.244z"/></g></g><path class="st2" d="M273.325,68.022h-105.53c-11.58,0-21,9.42-21,21v66.719c0,5.527,2.145,10.741,5.957,14.646v9.979    c0,3.559,1.979,6.754,5.166,8.338c1.325,0.659,2.745,0.983,4.157,0.983c1.984,0,3.952-0.641,5.61-1.896l14.598-11.049h91.042    c11.58,0,21-9.42,21-21V89.022C294.325,77.443,284.904,68.022,273.325,68.022z"/><g><path class="st3" d="M324.008,46.521h-66.325c-2.761,0-5-2.239-5-5s2.239-5,5-5h66.325c2.761,0,5,2.239,5,5     S326.77,46.521,324.008,46.521z"/></g><g><path class="st3" d="M324.008,78.065h-12.913c-2.761,0-5-2.239-5-5s2.239-5,5-5h12.913c2.761,0,5,2.239,5,5     S326.77,78.065,324.008,78.065z"/></g><g><path class="st4" d="M211.073,143.44c-1.28,0-2.559-0.488-3.536-1.464l-13.144-13.144c-1.953-1.953-1.953-5.119,0-7.071     c1.953-1.952,5.118-1.952,7.071,0l9.608,9.608l28.582-28.582c1.953-1.952,5.118-1.952,7.071,0c1.953,1.953,1.953,5.119,0,7.071     l-32.117,32.117C213.632,142.952,212.353,143.44,211.073,143.44z"/></g><g><path class="st2" d="M350.882,126.453c-1.985,0-3.952-0.641-5.61-1.896l-14.598-11.049h-26.414c-2.761,0-5-2.239-5-5s2.239-5,5-5     h28.092c1.089,0,2.149,0.356,3.018,1.013l14.834,11.228v-10.794c0-1.51,0.683-2.94,1.858-3.889     c2.605-2.105,4.099-5.224,4.099-8.558V25.789c0-6.065-4.935-11-11-11h-105.53c-6.065,0-11,4.935-11,11V57.13c0,2.761-2.239,5-5,5     s-5-2.239-5-5V25.789c0-11.58,9.42-21,21-21h105.53c11.58,0,21,9.42,21,21v66.719c0,5.527-2.145,10.741-5.957,14.646v9.979     c0,3.559-1.979,6.754-5.166,8.338C353.714,126.128,352.293,126.453,350.882,126.453z"/></g></g></g></svg>